<svg width="30" height="196" viewBox="0 0 30 196" fill="none" xmlns="http://www.w3.org/2000/svg">
<line x1="15.5" y1="10" x2="15.5" y2="196" stroke="black"/>
<circle cx="15" cy="15" r="14.5" fill="white" stroke="black"/>
<path d="M12.01 20.12C11.19 20.12 10.455 19.91 9.805 19.49C9.165 19.07 8.655 18.46 8.275 17.66C7.905 16.86 7.72 15.89 7.72 14.75C7.72 13.61 7.905 12.64 8.275 11.84C8.655 11.04 9.165 10.43 9.805 10.01C10.455 9.59 11.19 9.38 12.01 9.38C12.82 9.38 13.55 9.59 14.2 10.01C14.85 10.43 15.36 11.04 15.73 11.84C16.1 12.64 16.285 13.61 16.285 14.75C16.285 15.89 16.1 16.86 15.73 17.66C15.36 18.46 14.85 19.07 14.2 19.49C13.55 19.91 12.82 20.12 12.01 20.12ZM12.01 18.785C12.56 18.785 13.04 18.635 13.45 18.335C13.87 18.035 14.195 17.585 14.425 16.985C14.665 16.385 14.785 15.64 14.785 14.75C14.785 13.86 14.665 13.115 14.425 12.515C14.195 11.915 13.87 11.465 13.45 11.165C13.04 10.865 12.56 10.715 12.01 10.715C11.46 10.715 10.975 10.865 10.555 11.165C10.135 11.465 9.805 11.915 9.565 12.515C9.335 13.115 9.22 13.86 9.22 14.75C9.22 15.64 9.335 16.385 9.565 16.985C9.805 17.585 10.135 18.035 10.555 18.335C10.975 18.635 11.46 18.785 12.01 18.785ZM18.2949 20V10.1L18.9399 10.805H15.9249V9.5H19.7799V20H18.2949Z" fill="black"/>
</svg>
