<svg width="30" height="218" viewBox="0 0 30 218" fill="none" xmlns="http://www.w3.org/2000/svg">
<line x1="15.5" y1="2.18558e-08" x2="15.5" y2="203" stroke="black"/>
<circle cx="15" cy="203" r="14.5" fill="white" stroke="black"/>
<path d="M11.01 208.12C10.19 208.12 9.455 207.91 8.805 207.49C8.165 207.07 7.655 206.46 7.275 205.66C6.905 204.86 6.72 203.89 6.72 202.75C6.72 201.61 6.905 200.64 7.275 199.84C7.655 199.04 8.165 198.43 8.805 198.01C9.455 197.59 10.19 197.38 11.01 197.38C11.82 197.38 12.55 197.59 13.2 198.01C13.85 198.43 14.36 199.04 14.73 199.84C15.1 200.64 15.285 201.61 15.285 202.75C15.285 203.89 15.1 204.86 14.73 205.66C14.36 206.46 13.85 207.07 13.2 207.49C12.55 207.91 11.82 208.12 11.01 208.12ZM11.01 206.785C11.56 206.785 12.04 206.635 12.45 206.335C12.87 206.035 13.195 205.585 13.425 204.985C13.665 204.385 13.785 203.64 13.785 202.75C13.785 201.86 13.665 201.115 13.425 200.515C13.195 199.915 12.87 199.465 12.45 199.165C12.04 198.865 11.56 198.715 11.01 198.715C10.46 198.715 9.975 198.865 9.555 199.165C9.135 199.465 8.805 199.915 8.565 200.515C8.335 201.115 8.22 201.86 8.22 202.75C8.22 203.64 8.335 204.385 8.565 204.985C8.805 205.585 9.135 206.035 9.555 206.335C9.975 206.635 10.46 206.785 11.01 206.785ZM15.3599 208V206.98L19.6349 202.855C20.0149 202.495 20.2949 202.18 20.4749 201.91C20.6649 201.63 20.7899 201.375 20.8499 201.145C20.9199 200.905 20.9549 200.675 20.9549 200.455C20.9549 199.915 20.7649 199.49 20.3849 199.18C20.0049 198.87 19.4499 198.715 18.7199 198.715C18.1599 198.715 17.6549 198.81 17.2049 199C16.7549 199.18 16.3649 199.465 16.0349 199.855L15.0149 198.97C15.4149 198.46 15.9499 198.07 16.6199 197.8C17.2999 197.52 18.0449 197.38 18.8549 197.38C19.5849 197.38 20.2199 197.5 20.7599 197.74C21.2999 197.97 21.7149 198.305 22.0049 198.745C22.3049 199.185 22.4549 199.705 22.4549 200.305C22.4549 200.645 22.4099 200.98 22.3199 201.31C22.2299 201.64 22.0599 201.99 21.8099 202.36C21.5599 202.73 21.1999 203.145 20.7299 203.605L16.9199 207.28L16.5599 206.695H22.9049V208H15.3599Z" fill="black"/>
</svg>
