<svg width="423" height="30" viewBox="0 0 423 30" fill="none" xmlns="http://www.w3.org/2000/svg">
<line x1="5" y1="14.5" x2="423" y2="14.5" stroke="black"/>
<circle cx="5" cy="15" r="5" fill="black"/>
<circle cx="45" cy="15" r="5" fill="black"/>
<circle cx="85" cy="15" r="5" fill="black"/>
<circle cx="125" cy="15" r="5" fill="black"/>
<circle cx="225" cy="15" r="5" fill="black"/>
<circle cx="265" cy="15" r="5" fill="black"/>
<circle cx="305" cy="15" r="5" fill="black"/>
<circle cx="345" cy="15" r="5" fill="black"/>
<circle cx="175" cy="15" r="14.5" fill="white" stroke="black"/>
<path d="M174.733 22.126C173.683 22.126 172.682 21.958 171.73 21.622C170.778 21.272 170.022 20.81 169.462 20.236L170.197 19.039C170.659 19.529 171.289 19.935 172.087 20.257C172.899 20.579 173.774 20.74 174.712 20.74C175.958 20.74 176.903 20.467 177.547 19.921C178.205 19.361 178.534 18.633 178.534 17.737C178.534 17.107 178.38 16.568 178.072 16.12C177.778 15.658 177.274 15.301 176.56 15.049C175.846 14.797 174.866 14.671 173.62 14.671H170.491L171.247 7.3H179.29V8.644H171.856L172.633 7.909L171.982 14.083L171.205 13.327H173.956C175.44 13.327 176.63 13.509 177.526 13.873C178.422 14.237 179.066 14.748 179.458 15.406C179.864 16.05 180.067 16.806 180.067 17.674C180.067 18.5 179.871 19.256 179.479 19.942C179.087 20.614 178.499 21.146 177.715 21.538C176.931 21.93 175.937 22.126 174.733 22.126Z" fill="black"/>
</svg>
