<svg width="30" height="773" viewBox="0 0 30 773" fill="none" xmlns="http://www.w3.org/2000/svg">
<line x1="15.5" y1="15" x2="15.5" y2="773" stroke="black"/>
<circle cx="15" cy="15" r="14.5" fill="white" stroke="black"/>
<path d="M10.01 20.12C9.19 20.12 8.455 19.91 7.805 19.49C7.165 19.07 6.655 18.46 6.275 17.66C5.905 16.86 5.72 15.89 5.72 14.75C5.72 13.61 5.905 12.64 6.275 11.84C6.655 11.04 7.165 10.43 7.805 10.01C8.455 9.59 9.19 9.38 10.01 9.38C10.82 9.38 11.55 9.59 12.2 10.01C12.85 10.43 13.36 11.04 13.73 11.84C14.1 12.64 14.285 13.61 14.285 14.75C14.285 15.89 14.1 16.86 13.73 17.66C13.36 18.46 12.85 19.07 12.2 19.49C11.55 19.91 10.82 20.12 10.01 20.12ZM10.01 18.785C10.56 18.785 11.04 18.635 11.45 18.335C11.87 18.035 12.195 17.585 12.425 16.985C12.665 16.385 12.785 15.64 12.785 14.75C12.785 13.86 12.665 13.115 12.425 12.515C12.195 11.915 11.87 11.465 11.45 11.165C11.04 10.865 10.56 10.715 10.01 10.715C9.46 10.715 8.975 10.865 8.555 11.165C8.135 11.465 7.805 11.915 7.565 12.515C7.335 13.115 7.22 13.86 7.22 14.75C7.22 15.64 7.335 16.385 7.565 16.985C7.805 17.585 8.135 18.035 8.555 18.335C8.975 18.635 9.46 18.785 10.01 18.785ZM14.3749 17.42V16.37L19.7449 9.5H21.3649L16.0399 16.37L15.2749 16.13H23.6599V17.42H14.3749ZM20.2099 20V17.42L20.2549 16.13V13.85H21.6649V20H20.2099Z" fill="black"/>
<circle cx="15" cy="576" r="14.5" fill="white" stroke="black"/>
<path d="M11.01 581.12C10.19 581.12 9.455 580.91 8.805 580.49C8.165 580.07 7.655 579.46 7.275 578.66C6.905 577.86 6.72 576.89 6.72 575.75C6.72 574.61 6.905 573.64 7.275 572.84C7.655 572.04 8.165 571.43 8.805 571.01C9.455 570.59 10.19 570.38 11.01 570.38C11.82 570.38 12.55 570.59 13.2 571.01C13.85 571.43 14.36 572.04 14.73 572.84C15.1 573.64 15.285 574.61 15.285 575.75C15.285 576.89 15.1 577.86 14.73 578.66C14.36 579.46 13.85 580.07 13.2 580.49C12.55 580.91 11.82 581.12 11.01 581.12ZM11.01 579.785C11.56 579.785 12.04 579.635 12.45 579.335C12.87 579.035 13.195 578.585 13.425 577.985C13.665 577.385 13.785 576.64 13.785 575.75C13.785 574.86 13.665 574.115 13.425 573.515C13.195 572.915 12.87 572.465 12.45 572.165C12.04 571.865 11.56 571.715 11.01 571.715C10.46 571.715 9.975 571.865 9.555 572.165C9.135 572.465 8.805 572.915 8.565 573.515C8.335 574.115 8.22 574.86 8.22 575.75C8.22 576.64 8.335 577.385 8.565 577.985C8.805 578.585 9.135 579.035 9.555 579.335C9.975 579.635 10.46 579.785 11.01 579.785ZM18.9149 581.12C18.1749 581.12 17.4549 581.005 16.7549 580.775C16.0649 580.545 15.4999 580.235 15.0599 579.845L15.7499 578.66C16.0999 578.99 16.5549 579.26 17.1149 579.47C17.6749 579.68 18.2699 579.785 18.8999 579.785C19.6999 579.785 20.3149 579.615 20.7449 579.275C21.1749 578.935 21.3899 578.48 21.3899 577.91C21.3899 577.52 21.2949 577.18 21.1049 576.89C20.9149 576.6 20.5849 576.38 20.1149 576.23C19.6549 576.07 19.0199 575.99 18.2099 575.99H15.8249L16.3799 570.5H22.3049V571.805H16.9349L17.7149 571.07L17.2799 575.405L16.4999 574.685H18.5249C19.5749 574.685 20.4199 574.82 21.0599 575.09C21.6999 575.36 22.1649 575.735 22.4549 576.215C22.7449 576.685 22.8899 577.23 22.8899 577.85C22.8899 578.45 22.7449 579 22.4549 579.5C22.1649 579.99 21.7249 580.385 21.1349 580.685C20.5549 580.975 19.8149 581.12 18.9149 581.12Z" fill="black"/>
</svg>
