<svg width="30" height="218" viewBox="0 0 30 218" fill="none" xmlns="http://www.w3.org/2000/svg">
<line x1="15.5" y1="15" x2="15.5" y2="218" stroke="black"/>
<circle cx="15" cy="15" r="14.5" fill="white" stroke="black"/>
<path d="M11.01 20.12C10.19 20.12 9.455 19.91 8.805 19.49C8.165 19.07 7.655 18.46 7.275 17.66C6.905 16.86 6.72 15.89 6.72 14.75C6.72 13.61 6.905 12.64 7.275 11.84C7.655 11.04 8.165 10.43 8.805 10.01C9.455 9.59 10.19 9.38 11.01 9.38C11.82 9.38 12.55 9.59 13.2 10.01C13.85 10.43 14.36 11.04 14.73 11.84C15.1 12.64 15.285 13.61 15.285 14.75C15.285 15.89 15.1 16.86 14.73 17.66C14.36 18.46 13.85 19.07 13.2 19.49C12.55 19.91 11.82 20.12 11.01 20.12ZM11.01 18.785C11.56 18.785 12.04 18.635 12.45 18.335C12.87 18.035 13.195 17.585 13.425 16.985C13.665 16.385 13.785 15.64 13.785 14.75C13.785 13.86 13.665 13.115 13.425 12.515C13.195 11.915 12.87 11.465 12.45 11.165C12.04 10.865 11.56 10.715 11.01 10.715C10.46 10.715 9.975 10.865 9.555 11.165C9.135 11.465 8.805 11.915 8.565 12.515C8.335 13.115 8.22 13.86 8.22 14.75C8.22 15.64 8.335 16.385 8.565 16.985C8.805 17.585 9.135 18.035 9.555 18.335C9.975 18.635 10.46 18.785 11.01 18.785ZM18.5884 20.12C17.8484 20.12 17.1284 20.005 16.4284 19.775C15.7384 19.545 15.1734 19.235 14.7334 18.845L15.4234 17.66C15.7734 17.99 16.2284 18.26 16.7884 18.47C17.3484 18.68 17.9484 18.785 18.5884 18.785C19.3684 18.785 19.9734 18.62 20.4034 18.29C20.8434 17.95 21.0634 17.495 21.0634 16.925C21.0634 16.375 20.8534 15.935 20.4334 15.605C20.0234 15.265 19.3684 15.095 18.4684 15.095H17.6284V14.045L20.7484 10.205L20.9584 10.805H15.2134V9.5H22.1434V10.52L19.0384 14.345L18.2584 13.88H18.7534C20.0234 13.88 20.9734 14.165 21.6034 14.735C22.2434 15.305 22.5634 16.03 22.5634 16.91C22.5634 17.5 22.4184 18.04 22.1284 18.53C21.8384 19.02 21.3984 19.41 20.8084 19.7C20.2284 19.98 19.4884 20.12 18.5884 20.12Z" fill="black"/>
</svg>
